<svg xmlns="http://www.w3.org/2000/svg" viewBox="14.688 847.677 502.252 160.146"><defs><clipPath id="a"><path d="M0 612h792V0H0Z" style="fill:none;clip-rule:nonzero"></path></clipPath></defs><path d="M0 0h-8.512l-3.397-7.101v-.265h7.102L0-.353Zm-8.512-18.305-3.971-9.836h7.896Zm6.88-17.158h-13.805l-2.029-5.072h-9.263l13.85 30.875h8.821L9.748-40.535H.397Z" style="fill:#fff;fill-opacity:1" transform="matrix(1 0 0 -1 302.69 882.81)"></path><path d="M0 0v-23.465h14.776v-7.411H-8.733V0Z" style="fill:#fff;fill-opacity:1" transform="matrix(1 0 0 -1 322.763 892.469)"></path><path d="M0 0h-8.513l-12.835 31.007h9.659l3.528-9.262 3.883-11.424 3.925 11.424 3.528 9.262h9.66Z" style="fill:#fff;fill-opacity:1" transform="matrix(1 0 0 -1 352.759 923.476)"></path><path d="m0 0-3.97-9.836h7.895Zm6.881-17.158H-6.925l-2.029-5.073h-9.263l13.85 30.876h8.822L18.26-22.231H8.909Z" style="fill:#fff;fill-opacity:1" transform="matrix(1 0 0 -1 375.742 901.114)"></path><g style="clip-path:url(#a)" transform="matrix(1 0 0 -1 -130.687 1233.75)"><path d="M0 0v-7.41h6.44c2.293 0 3.308 1.72 3.308 3.572C9.748-1.897 8.645 0 6.352 0Zm19.848-23.907h-9.615L3.044-13.895H0v-10.012h-8.733V6.969H6.352c7.895 0 11.997-5.073 11.997-10.63 0-3.794-1.323-7.014-6.528-9.307l8.027-10.409Z" style="fill:#fff;fill-opacity:1" transform="translate(535.014 334.312)"></path></g><g style="clip-path:url(#a)" transform="matrix(1 0 0 -1 -130.687 1233.75)"><path d="M0 0c-4.984 0-8.424-3.617-8.424-8.733 0-5.161 3.484-8.734 8.424-8.734 5.117 0 8.425 3.617 8.425 8.734C8.425-3.441 5.117 0 0 0m0-24.921c-10.1 0-17.158 5.867-17.158 16.188C-17.158 1.411-10.1 7.454 0 7.454c10.145 0 17.158-5.91 17.158-16.187 0-10.321-7.013-16.188-17.158-16.188" style="fill:#fff;fill-opacity:1" transform="translate(572.2 334.576)"></path></g><g style="clip-path:url(#a)" transform="matrix(1 0 0 -1 -130.687 1233.75)"><path d="M0 0c-5.342 0-9.029-3.876-9.029-9.36 0-5.531 3.735-9.361 9.029-9.361 5.484 0 9.03 3.877 9.03 9.361C9.03-3.687 5.484 0 0 0m0-26.71c-10.825 0-18.389 6.287-18.389 17.35C-18.389 1.512-10.825 7.989 0 7.989c10.873 0 18.39-6.335 18.39-17.349 0-11.063-7.517-17.35-18.39-17.35" style="fill:#fff;fill-opacity:1" transform="translate(423.682 296.354)"></path></g><g style="clip-path:url(#a)" transform="matrix(1 0 0 -1 -130.687 1233.75)"><path d="M0 0h7.895c2.364 0 3.498 1.277 3.498 3.12 0 1.797-1.182 3.167-3.498 3.167H0Zm0 13.189h7.469c1.939 0 2.978.993 2.978 2.458 0 1.467-1.039 2.601-2.884 2.601H0Zm7.706 12.622c6.618 0 12.007-2.931 12.007-9.265 0-2.506-.756-5.105-3.64-6.429 3.073-1.655 4.586-4.727 4.586-7.706 0-7.422-6.76-9.644-12.811-9.691H-9.218v33.091Z" style="fill:#fff;fill-opacity:1" transform="translate(454.272 277.728)"></path></g><g style="clip-path:url(#a)" transform="matrix(1 0 0 -1 -130.687 1233.75)"><path d="M0 0v-7.941h6.902c2.458 0 3.545 1.843 3.545 3.829C10.447-2.032 9.266 0 6.807 0Zm21.273-25.622H10.968L3.262-14.89H0v-10.732h-9.36V7.47H6.807c8.462 0 12.859-5.437 12.859-11.393 0-4.065-1.418-7.517-6.996-9.975l8.603-11.156Z" style="fill:#fff;fill-opacity:1" transform="translate(486.514 296.07)"></path></g><g style="clip-path:url(#a)" transform="matrix(1 0 0 -1 -130.687 1233.75)"><path d="M0 0h-26.473v33.091H-.661v-7.847h-16.593v-4.727h15.647v-7.611h-15.647V7.895H0Z" style="fill:#fff;fill-opacity:1" transform="translate(536.581 270.448)"></path></g><g style="clip-path:url(#a)" transform="matrix(1 0 0 -1 -130.687 1233.75)"><path d="M0 0c-2.411 2.269-5.343 2.883-7.564 2.883-5.389 0-8.887-3.214-8.887-9.691 0-4.255 2.221-9.502 8.887-9.502 1.749 0 4.491.331 6.382 1.702v4.255h-8.367v7.327H6.618v-14.702c-2.08-4.208-7.848-6.476-14.229-6.476-13.095 0-18.059 8.745-18.059 17.396 0 8.651 5.673 17.539 18.106 17.539 4.585 0 8.651-.946 13.001-5.342Z" style="fill:#fff;fill-opacity:1" transform="translate(564.43 293.755)"></path></g><g style="clip-path:url(#a)" transform="matrix(1 0 0 -1 -130.687 1233.75)"><path d="M0 0h-9.124l-3.64-7.611v-.284h7.612L0-.378Zm.473-27.702c0 5.673-3.546 9.36-9.03 9.36-5.342 0-9.029-3.876-9.029-9.36 0-5.531 3.735-9.36 9.029-9.36 5.484 0 9.03 3.876 9.03 9.36m9.36 0c0-11.062-7.517-17.35-18.39-17.35-10.825 0-18.389 6.288-18.389 17.35 0 10.873 7.564 17.349 18.389 17.349 10.873 0 18.39-6.335 18.39-17.349" style="fill:#fff;fill-opacity:1" transform="translate(601.447 314.696)"></path></g><g style="clip-path:url(#a)" transform="matrix(1 0 0 -1 -130.687 1233.75)"><path d="M0 0c-.236 3.971-.236 5.484-.283 6.76v11.345h9.407v-33.091H1.182L-12.622 2.836l.142-7.232v-10.59h-9.455v33.091h7.942Z" style="fill:#fff;fill-opacity:1" transform="translate(636.197 285.434)"></path></g><g style="clip-path:url(#a)" transform="matrix(1 0 0 -1 -130.687 1233.75)"><path d="M375.828 225.927h-2.16v122.446h2.16Z" style="fill:#fff;fill-opacity:1"></path><path d="M0 0h23.533L49.59 18.43l-30.93 9.957Z" style="fill:#fff;fill-opacity:1" transform="translate(200.011 357.686)"></path><path d="M0 0c0 .129-.064.193-.192.193h-4.103c-.214 0-.32.106-.32.32v2.885c0 .213.106.32.32.32H8.591c.213 0 .32-.107.32-.32V.513c0-.214-.107-.32-.32-.32H4.456c-.129 0-.193-.064-.193-.193v-17.757c0-.213-.107-.32-.321-.32H.32c-.213 0-.32.107-.32.32Z" style="fill:#fff;fill-opacity:1" transform="translate(412.03 254.857)"></path><path d="M0 0c.213 0 .32-.107.32-.32v-10.642c0-.62.048-1.133.145-1.539.096-.406.261-.726.496-.961.235-.236.566-.406.994-.513.427-.107.962-.16 1.603-.16.832 0 1.559.064 2.179.192.192.064.289.171.289.32V-.32c0 .213.107.32.32.32h3.525c.214 0 .322-.107.322-.32v-16.155c0-.172-.108-.278-.322-.321a41.19 41.19 0 0 0-3.093-.464 28.358 28.358 0 0 0-3.285-.209c-1.41 0-2.585.107-3.525.321-.941.213-1.699.561-2.276 1.042-.577.48-.984 1.116-1.218 1.907-.236.79-.353 1.773-.353 2.949V-.32c0 .213.107.32.321.32Z" style="fill:#fff;fill-opacity:1" transform="translate(425.46 253.928)"></path><path d="M0 0c.129 0 .193.064.193.192-.086.406-.214.999-.385 1.779-.171.78-.363 1.619-.577 2.517-.214.897-.422 1.789-.625 2.676a196.84 196.84 0 0 1-.529 2.259.192.192 0 0 1-.128.129c-.064.02-.204.032-.417.032s-.352-.012-.417-.032a.191.191 0 0 1-.127-.129 104.66 104.66 0 0 1-.593-2.259 744.53 744.53 0 0 1-.673-2.676c-.225-.898-.429-1.737-.61-2.517a92.994 92.994 0 0 1-.4-1.779c0-.128.064-.192.192-.192Zm.801-3.462c-.021.15-.107.225-.256.225h-6.25c-.192 0-.299-.075-.321-.225L-7.244-8.43c-.085-.213-.224-.32-.417-.32h-3.717c-.171 0-.257.064-.257.192 0 .064.011.107.032.128.149.641.369 1.507.657 2.596.289 1.09.614 2.297.978 3.622.363 1.325.737 2.709 1.122 4.151a245.78 245.78 0 0 0 1.154 4.183c.385 1.346.737 2.596 1.058 3.75.32 1.154.598 2.105.833 2.853.064.213.192.32.384.32H.706c.192 0 .32-.107.384-.32.235-.791.518-1.801.85-3.029.331-1.229.689-2.549 1.073-3.959.385-1.41.77-2.852 1.154-4.327.385-1.474.748-2.863 1.09-4.166.342-1.304.641-2.458.898-3.462.256-1.005.437-1.742.544-2.212v-.128c0-.128-.075-.192-.224-.192H2.372c-.235 0-.374.107-.416.32Z" style="fill:#fff;fill-opacity:1" transform="translate(455.91 245.53)"></path><path d="M0 0c.128 0 .193.064.193.192-.086.406-.214.999-.385 1.779-.171.78-.363 1.619-.577 2.517-.214.897-.422 1.789-.625 2.676a196.84 196.84 0 0 1-.529 2.259.192.192 0 0 1-.128.129c-.064.02-.204.032-.417.032s-.352-.012-.417-.032a.191.191 0 0 1-.127-.129 104.66 104.66 0 0 1-.593-2.259 744.53 744.53 0 0 1-.673-2.676c-.225-.898-.429-1.737-.61-2.517a92.994 92.994 0 0 1-.4-1.779c0-.128.064-.192.192-.192Zm.801-3.462c-.021.15-.107.225-.256.225h-6.25c-.192 0-.299-.075-.321-.225L-7.244-8.43c-.085-.213-.224-.32-.417-.32h-3.717c-.171 0-.257.064-.257.192 0 .064.011.107.032.128.149.641.369 1.507.657 2.596.289 1.09.614 2.297.978 3.622.363 1.325.737 2.709 1.122 4.151a245.78 245.78 0 0 0 1.154 4.183c.385 1.346.737 2.596 1.058 3.75.32 1.154.598 2.105.833 2.853.064.213.192.32.384.32H.706c.192 0 .32-.107.384-.32.235-.791.518-1.801.85-3.029.331-1.229.688-2.549 1.073-3.959.385-1.41.77-2.852 1.154-4.327.385-1.474.748-2.863 1.09-4.166.342-1.304.641-2.458.898-3.462.256-1.005.437-1.742.544-2.212v-.128c0-.128-.075-.192-.224-.192H2.372c-.235 0-.374.107-.416.32Z" style="fill:#fff;fill-opacity:1" transform="translate(574.515 245.53)"></path><path d="M0 0a7.722 7.722 0 0 0-1.138-.241 10.267 10.267 0 0 0-1.33-.079c-1.346 0-2.351.277-3.013.833-.662.555-.993 1.581-.993 3.077v19.616c0 .235.106.352.32.352h3.558c.213 0 .32-.117.32-.352V4.167c0-.513.107-.866.321-1.058.214-.192.555-.289 1.026-.289H.096c.214 0 .321-.107.321-.32L.32.385C.32.171.213.043 0 0" style="fill:#fff;fill-opacity:1" transform="translate(471.36 236.78)"></path><path d="M0 0a8.957 8.957 0 0 0-1.651-.337A16.415 16.415 0 0 0-3.59-.449c-1.325 0-2.441.192-3.35.577-.908.384-1.64.945-2.195 1.683-.556.737-.961 1.655-1.218 2.757-.257 1.099-.385 2.355-.385 3.766 0 1.388.123 2.638.369 3.749.245 1.111.646 2.057 1.202 2.837a5.406 5.406 0 0 0 2.195 1.795c.909.417 2.025.625 3.35.625.748 0 1.426-.043 2.036-.128.608-.086 1.094-.192 1.457-.321.108-.043.161-.118.161-.224l-.128-2.757c0-.149-.086-.192-.257-.127a10.597 10.597 0 0 1-2.5.32c-.663 0-1.218-.092-1.667-.273a2.184 2.184 0 0 1-1.073-.945c-.268-.448-.455-1.047-.561-1.795-.107-.748-.161-1.678-.161-2.789 0-1.046.054-1.918.161-2.612.106-.695.293-1.25.561-1.667a2.245 2.245 0 0 1 1.073-.897c.449-.182 1.015-.272 1.7-.272.426 0 .86.026 1.298.079.437.054.817.123 1.137.209a.623.623 0 0 0 .192.032c.064 0 .107-.043.129-.129L.129.288C.149.16.106.063 0 0" style="fill:#fff;fill-opacity:1" transform="translate(484.405 236.909)"></path><path d="M0 0c0 .128-.064.192-.192.192h-2.147A9.034 9.034 0 0 1-3.783.096c-.383-.065-.694-.198-.929-.401-.235-.203-.4-.481-.496-.833-.097-.353-.145-.818-.145-1.394 0-.578.042-1.031.128-1.363.086-.332.246-.582.481-.753.235-.172.55-.284.946-.336.395-.054.913-.081 1.554-.081.363 0 .737.016 1.122.049.385.032.684.069.898.112.149.042.224.117.224.224Zm-3.398 6.666c-.576 0-1.255-.032-2.035-.095a23.897 23.897 0 0 1-1.939-.225.99.99 0 0 0-.304-.016c-.097.01-.156.069-.177.177l-.224 2.467c-.043.235.021.385.192.449.62.171 1.437.315 2.452.433 1.015.117 2.067.176 3.157.176.983 0 1.87-.091 2.661-.273.79-.181 1.463-.47 2.019-.864.556-.397.977-.92 1.267-1.571.288-.653.432-1.448.432-2.388V-6.699a.461.461 0 0 0-.08-.273c-.054-.075-.166-.144-.337-.208a8.95 8.95 0 0 0-1.042-.241 15.638 15.638 0 0 0-1.361-.176c-.492-.042-1.01-.08-1.556-.112a28.094 28.094 0 0 0-1.65-.048c-1.453 0-2.66.075-3.622.224-.962.149-1.731.411-2.308.786a3.021 3.021 0 0 0-1.218 1.474c-.235.609-.352 1.373-.352 2.292 0 .811.064 1.522.192 2.131.128.609.384 1.122.769 1.539.385.416.935.758 1.651 1.025.715.267 1.661.475 2.837.625l3.782.481c.128.021.192.085.192.192v1.283c0 .961-.256 1.597-.769 1.907-.513.31-1.389.464-2.629.464" style="fill:#fff;fill-opacity:1" transform="translate(496.168 244.217)"></path><path d="M0 0a7.722 7.722 0 0 0-1.138-.241 10.267 10.267 0 0 0-1.33-.079c-1.346 0-2.351.277-3.013.833-.662.555-.993 1.581-.993 3.077v19.616c0 .235.106.352.32.352h3.558c.213 0 .32-.117.32-.352V4.167c0-.513.107-.866.321-1.058.214-.192.555-.289 1.026-.289H.096c.214 0 .321-.107.321-.32L.32.385C.32.171.213.043 0 0" style="fill:#fff;fill-opacity:1" transform="translate(511.04 236.78)"></path><path d="M0 0a.7.7 0 0 1-.049.256C-.081.342-.15.395-.257.417c-.492.107-1.111.16-1.858.16-.728 0-1.336-.075-1.827-.224a2.3 2.3 0 0 1-1.203-.85c-.31-.416-.529-.999-.656-1.747-.129-.748-.193-1.72-.193-2.917 0-1.175.048-2.142.144-2.9.096-.759.283-1.362.561-1.811a2.144 2.144 0 0 1 1.186-.929c.513-.172 1.197-.257 2.051-.257.257 0 .556.01.898.032.342.021.63.064.866.128.192.064.288.171.288.321Zm-2.084-14.103c-1.666 0-3.034.16-4.102.481-1.069.321-1.913.838-2.532 1.554-.621.716-1.048 1.645-1.283 2.789-.235 1.143-.352 2.537-.352 4.183 0 2.949.577 5.145 1.73 6.587 1.154 1.442 3.046 2.163 5.674 2.163.555 0 1.095-.032 1.619-.096a10.61 10.61 0 0 1 1.105-.096c.15 0 .225.096.225.288v5.705c0 .214.106.321.32.321h3.558c.213 0 .321-.107.321-.321v-22.468a.49.49 0 0 0-.048-.224c-.032-.064-.124-.129-.273-.193-.256-.107-.62-.203-1.09-.288a18.76 18.76 0 0 0-1.522-.209 40.025 40.025 0 0 0-1.699-.128 30.478 30.478 0 0 0-1.651-.048" style="fill:#fff;fill-opacity:1" transform="translate(523.766 250.563)"></path><path d="M0 0c-.213 0-.32.106-.32.32l2.596 5.866c.128.214.288.321.481.321h3.109a.399.399 0 0 0 .257-.08c.063-.054.085-.135.063-.241L2.404.512C2.255.278 2.1.133 1.94.08 1.779.026 1.507 0 1.122 0Zm-.031-19.36c-.214 0-.322.107-.322.321v16.507c0 .213.108.32.322.32h3.557c.214 0 .321-.107.321-.32v-16.507c0-.214-.107-.321-.321-.321Z" style="fill:#fff;fill-opacity:1" transform="translate(532.899 256.14)"></path><path d="M0 0c0 .128-.064.192-.192.192h-2.147A9.034 9.034 0 0 1-3.783.096c-.383-.065-.694-.198-.929-.401-.235-.203-.4-.481-.496-.833-.097-.353-.145-.818-.145-1.394 0-.578.042-1.031.128-1.363.086-.332.246-.582.481-.753.235-.172.55-.284.946-.336.395-.054.913-.081 1.554-.081.363 0 .737.016 1.122.049.385.032.684.069.898.112.149.042.224.117.224.224Zm-3.398 6.666c-.576 0-1.255-.032-2.035-.095a23.897 23.897 0 0 1-1.939-.225.99.99 0 0 0-.304-.016c-.097.01-.156.069-.177.177l-.224 2.467c-.043.235.021.385.192.449.62.171 1.437.315 2.452.433 1.015.117 2.067.176 3.157.176.983 0 1.87-.091 2.661-.273.79-.181 1.463-.47 2.019-.864.556-.397.977-.92 1.267-1.571.288-.653.432-1.448.432-2.388V-6.699a.461.461 0 0 0-.08-.273c-.054-.075-.166-.144-.337-.208a8.95 8.95 0 0 0-1.042-.241 15.638 15.638 0 0 0-1.361-.176c-.492-.042-1.01-.08-1.556-.112a28.094 28.094 0 0 0-1.65-.048c-1.453 0-2.66.075-3.622.224-.962.149-1.731.411-2.308.786a3.021 3.021 0 0 0-1.218 1.474c-.235.609-.352 1.373-.352 2.292 0 .811.064 1.522.192 2.131.128.609.384 1.122.769 1.539.385.416.935.758 1.651 1.025.715.267 1.661.475 2.837.625l3.782.481c.128.021.192.085.192.192v1.283c0 .961-.256 1.597-.769 1.907-.513.31-1.389.464-2.629.464" style="fill:#fff;fill-opacity:1" transform="translate(549.919 244.217)"></path><path d="M0 0a7.722 7.722 0 0 0-1.138-.241 10.267 10.267 0 0 0-1.33-.079c-1.346 0-2.351.277-3.013.833-.662.555-.993 1.581-.993 3.077v19.616c0 .235.106.352.32.352h3.558c.213 0 .32-.117.32-.352V4.167c0-.513.107-.866.321-1.058.214-.192.556-.289 1.026-.289H.096c.214 0 .321-.107.321-.32L.32.385C.32.171.213.043 0 0" style="fill:#fff;fill-opacity:1" transform="translate(590.125 236.78)"></path><path d="M0 0c-.214 0-.321.107-.321.32v16.508c0 .213.107.32.321.32h3.558c.213 0 .32-.107.32-.32V.32c0-.213-.107-.32-.32-.32Zm-.096 20.001c-.215 0-.321.107-.321.32v3.173c0 .214.106.321.321.321h3.749c.214 0 .321-.107.321-.321v-3.173c0-.213-.107-.32-.321-.32Z" style="fill:#fff;fill-opacity:1" transform="translate(592.817 236.78)"></path><path d="M0 0c0 .128-.064.192-.192.192h-2.147A9.034 9.034 0 0 1-3.783.096c-.383-.065-.694-.198-.929-.401-.235-.203-.4-.481-.496-.833-.097-.353-.145-.818-.145-1.394 0-.578.042-1.031.128-1.363.086-.332.246-.582.481-.753.235-.172.55-.284.946-.336.395-.054.913-.081 1.554-.081.363 0 .737.016 1.122.049.385.032.684.069.898.112.149.042.224.117.224.224Zm-3.398 6.666c-.576 0-1.255-.032-2.035-.095a23.897 23.897 0 0 1-1.939-.225.99.99 0 0 0-.304-.016c-.097.01-.156.069-.177.177l-.224 2.467c-.043.235.021.385.192.449.62.171 1.437.315 2.452.433 1.015.117 2.067.176 3.157.176.983 0 1.87-.091 2.661-.273.79-.181 1.463-.47 2.019-.864.556-.397.977-.92 1.266-1.571.289-.653.433-1.448.433-2.388V-6.699a.461.461 0 0 0-.08-.273c-.054-.075-.166-.144-.337-.208a8.95 8.95 0 0 0-1.042-.241 15.638 15.638 0 0 0-1.361-.176c-.492-.042-1.01-.08-1.556-.112a28.094 28.094 0 0 0-1.65-.048c-1.453 0-2.66.075-3.622.224-.962.149-1.731.411-2.308.786a3.021 3.021 0 0 0-1.218 1.474c-.235.609-.352 1.373-.352 2.292 0 .811.064 1.522.192 2.131.128.609.384 1.122.769 1.539.385.416.935.758 1.651 1.025.715.267 1.661.475 2.837.625l3.782.481c.128.021.192.085.192.192v1.283c0 .961-.256 1.597-.769 1.907-.513.31-1.389.464-2.629.464" style="fill:#fff;fill-opacity:1" transform="translate(609.227 244.217)"></path><path d="M0 0a.7.7 0 0 1-.049.256C-.081.342-.15.395-.257.417c-.492.107-1.111.16-1.858.16-.728 0-1.336-.075-1.827-.224a2.3 2.3 0 0 1-1.203-.85c-.31-.416-.529-.999-.656-1.747-.129-.748-.193-1.72-.193-2.917 0-1.175.048-2.142.144-2.9.096-.759.283-1.362.561-1.811a2.14 2.14 0 0 1 1.186-.929c.513-.172 1.197-.257 2.051-.257.257 0 .556.01.898.032.342.021.63.064.866.128.192.064.288.171.288.321Zm-2.084-14.103c-1.666 0-3.034.16-4.102.481-1.069.321-1.913.838-2.532 1.554-.621.716-1.048 1.645-1.283 2.789-.235 1.143-.352 2.537-.352 4.183 0 2.949.577 5.145 1.73 6.587 1.154 1.442 3.046 2.163 5.674 2.163.555 0 1.095-.032 1.619-.096a10.61 10.61 0 0 1 1.105-.096c.15 0 .225.096.225.288v5.705c0 .214.106.321.32.321h3.558c.213 0 .32-.107.32-.321v-22.468a.49.49 0 0 0-.047-.224c-.032-.064-.124-.129-.273-.193-.256-.107-.62-.203-1.09-.288a18.76 18.76 0 0 0-1.522-.209 40.025 40.025 0 0 0-1.699-.128 30.478 30.478 0 0 0-1.651-.048" style="fill:#fff;fill-opacity:1" transform="translate(626.888 250.563)"></path><path d="M0 0c0 .128-.064.192-.192.192h-2.147A9.034 9.034 0 0 1-3.783.096c-.383-.065-.694-.198-.929-.401-.235-.203-.4-.481-.496-.833-.097-.353-.145-.818-.145-1.394 0-.578.043-1.031.128-1.363.086-.332.246-.582.481-.753.235-.172.55-.284.946-.336.395-.054.913-.081 1.554-.081.363 0 .737.016 1.122.049.385.032.684.069.898.112.149.042.224.117.224.224Zm-3.398 6.666c-.576 0-1.255-.032-2.035-.095a23.897 23.897 0 0 1-1.939-.225.99.99 0 0 0-.304-.016c-.097.01-.156.069-.177.177l-.224 2.467c-.043.235.021.385.192.449.62.171 1.437.315 2.452.433 1.015.117 2.067.176 3.157.176.983 0 1.87-.091 2.661-.273.79-.181 1.463-.47 2.019-.864.556-.397.977-.92 1.267-1.571.288-.653.432-1.448.432-2.388V-6.699a.461.461 0 0 0-.08-.273c-.054-.075-.166-.144-.337-.208a8.95 8.95 0 0 0-1.042-.241 15.638 15.638 0 0 0-1.361-.176c-.492-.042-1.01-.08-1.556-.112a28.094 28.094 0 0 0-1.65-.048c-1.453 0-2.66.075-3.622.224-.962.149-1.731.411-2.308.786a3.021 3.021 0 0 0-1.218 1.474c-.235.609-.352 1.373-.352 2.292 0 .811.064 1.522.192 2.131.128.609.384 1.122.769 1.539.385.416.935.758 1.651 1.025.715.267 1.661.475 2.837.625l3.782.481c.128.021.192.085.192.192v1.283c0 .961-.256 1.597-.769 1.907-.513.31-1.389.464-2.629.464" style="fill:#fff;fill-opacity:1" transform="translate(643.523 244.217)"></path><path d="M0 0h23.533L49.59 18.43l-30.93 9.957Z" style="fill:#fff;fill-opacity:1" transform="translate(200.011 357.686)"></path><path d="m0 0 12.305 32.49L24.61 0Zm139.559 45.12c-10.442 20.213-31.111 33.983-54.916 33.983-18.206 0-34.582-8.053-45.95-20.882l7.803-18.439 8.477-20.028c.786 6.201 3.148 11.844 6.618 16.438 5.495 7.273 13.778 11.909 23.052 11.909 5.966 0 11.52-1.924 16.19-5.226 8.284-5.859 13.777-16.075 13.777-27.707 0-11.173-5.069-21.041-12.812-26.995-4.86-3.737-10.772-5.937-17.155-5.937-7.542 0-14.027 3.019-19.162 8.06-3.086 3.03-5.684 6.791-7.73 11.066l-1.683 3.957-.089.23-28.845 68.122H-2.524S-54.132-47.494-54.637-47.927h35.166l8.685 20.76h46.182c.097-.147.203-.292.302-.439 8.552-12.585 27.267-21.16 45.984-21.16h2.961c23.676 0 44.255 13.617 54.751 33.65 4.723 9.015 7.407 19.326 7.407 30.284 0 10.825-2.625 21.016-7.242 29.952" style="fill:#fff;fill-opacity:1" transform="translate(200.011 274.693)"></path></g></svg>