<svg xmlns="http://www.w3.org/2000/svg" viewBox="176.193 2775.861 420.2 324.278"><defs><clipPath id="a"><path d="M0 612h792V0H0Z" style="fill:none;clip-rule:nonzero"></path></clipPath></defs><path d="M0 0h23.533L49.59 18.43l-30.93 9.957Z" style="fill:#fff;fill-opacity:1" transform="matrix(1 0 0 -1 235.53 2804.248)"></path><path d="M0 0h23.533L49.59 18.43l-30.93 9.957Z" style="fill:#fff;fill-opacity:1" transform="matrix(1 0 0 -1 235.53 2804.248)"></path><g style="clip-path:url(#a)" transform="matrix(1 0 0 -1 -9.707 3244)"><path d="m0 0 12.305 32.49L24.61 0Zm139.559 45.12c-10.442 20.213-31.111 33.983-54.916 33.983-18.206 0-34.582-8.053-45.95-20.882l7.803-18.439 8.477-20.028c.786 6.201 3.148 11.844 6.618 16.438 5.495 7.273 13.778 11.909 23.052 11.909 5.966 0 11.52-1.924 16.19-5.226 8.284-5.859 13.777-16.075 13.777-27.707 0-11.173-5.069-21.041-12.812-26.995-4.86-3.737-10.772-5.937-17.155-5.937-7.542 0-14.027 3.019-19.162 8.06-3.086 3.03-5.684 6.791-7.73 11.066-.56 1.316-30.617 72.309-30.617 72.309H-2.524S-54.132-47.494-54.637-47.927h35.166l8.685 20.76h46.182c.097-.147.203-.292.302-.439 8.552-12.585 27.267-21.16 45.984-21.16h2.961c23.676 0 44.255 13.617 54.751 33.65 4.723 9.015 7.407 19.326 7.407 30.284 0 10.825-2.625 21.016-7.242 29.952" style="fill:#fff;fill-opacity:1" transform="translate(245.237 356.76)"></path></g><g style="clip-path:url(#a)" transform="matrix(1 0 0 -1 -9.707 3244)"><path d="M0 0h13.997L6.999 15.918Zm15.117-2.56H-1.12l-2.879-6.478h-2.96L5.599 18.957h2.799L20.956-9.038h-2.959Z" style="fill:#fff;fill-opacity:1" transform="translate(192.859 240.133)"></path></g><g style="clip-path:url(#a)" transform="matrix(1 0 0 -1 -9.707 3244)"><path d="M0 0v-25.355h15.558v-2.64H-2.8V0Z" style="fill:#fff;fill-opacity:1" transform="translate(220.539 259.09)"></path></g><g style="clip-path:url(#a)" transform="matrix(1 0 0 -1 -9.707 3244)"><path d="M0 0c-2.84-2.839-6.439-4.239-10.199-4.239-9.678 0-14.518 6.479-14.557 14.278-.04 7.639 4.839 14.557 14.557 14.557 3.72 0 7.479-1.32 9.919-4.2L-2 18.677a11.592 11.592 0 0 1-8.199 3.359c-7.798 0-11.758-5.759-11.758-11.958 0-6.558 3.96-11.718 11.758-11.718 3 0 6.159 1.201 8.399 3.44Z" style="fill:#fff;fill-opacity:1" transform="translate(261.617 234.893)"></path></g><g style="clip-path:url(#a)" transform="matrix(1 0 0 -1 -9.707 3244)"><path d="M0 0h13.997L6.999 15.918Zm15.117-2.56H-1.12l-2.879-6.478h-2.96L5.599 18.957h2.799L20.956-9.038h-2.959Z" style="fill:#fff;fill-opacity:1" transform="translate(269.858 240.133)"></path></g><g style="clip-path:url(#a)" transform="matrix(1 0 0 -1 -9.707 3244)"><path d="M0 0v-25.355h15.558v-2.64H-2.8V0Z" style="fill:#fff;fill-opacity:1" transform="translate(297.538 259.09)"></path></g><g style="clip-path:url(#a)" transform="matrix(1 0 0 -1 -9.707 3244)"><path d="M0 0h7.079c7.799 0 11.318 6.079 11.198 11.718-.12 5.439-3.639 11.038-11.198 11.038H0Zm7.079 25.396c9.479 0 14.037-6.799 14.037-13.718C21.116 4.599 16.877-2.6 7.079-2.6H-2.8v27.996Z" style="fill:#fff;fill-opacity:1" transform="translate(319.658 233.694)"></path></g><g style="clip-path:url(#a)" transform="matrix(1 0 0 -1 -9.707 3244)"><path d="M348.777 259.09h-2.8v-27.995h2.8ZM351.457 267.009l-3.36-5.039h-2.199v.159l2.679 4.96h2.88Z" style="fill:#fff;fill-opacity:1"></path><path d="M0 0h13.997L6.999 15.918Zm15.117-2.56H-1.12l-2.879-6.478h-2.96L5.599 18.957h2.799L20.956-9.038h-2.959Z" style="fill:#fff;fill-opacity:1" transform="translate(359.657 240.133)"></path><path d="M0 0h-8.493l-3.389-7.085v-.264h7.085L0-.352Zm-8.493-18.263-3.961-9.812h7.877Zm6.865-17.118h-13.774l-2.025-5.06h-9.241L-12.85-9.637h8.801L9.726-40.441H.396Z" style="fill:#fff;fill-opacity:1" transform="translate(212.568 226.164)"></path><path d="M0 0v-23.411h14.742v-7.394H-8.714V0Z" style="fill:#fff;fill-opacity:1" transform="translate(232.585 216.527)"></path><path d="M0 0h-8.493l-12.806 30.937h9.638l3.52-9.243 3.872-11.397 3.917 11.397 3.521 9.243h9.638Z" style="fill:#fff;fill-opacity:1" transform="translate(262.505 185.59)"></path><path d="m0 0-3.961-9.813h7.877Zm6.865-17.118H-6.909l-2.025-5.061h-9.241L-4.356 8.626h8.8l13.775-30.805h-9.33Z" style="fill:#fff;fill-opacity:1" transform="translate(285.428 207.901)"></path><path d="M0 0v-7.394h6.425c2.288 0 3.301 1.717 3.301 3.565C9.726-1.893 8.625 0 6.337 0Zm19.803-23.852h-9.594l-7.173 9.99H0v-9.99h-8.714V6.953H6.337c7.877 0 11.97-5.061 11.97-10.606 0-3.784-1.321-6.996-6.513-9.285l8.009-10.385Z" style="fill:#fff;fill-opacity:1" transform="translate(313.939 209.574)"></path><path d="M0 0c-4.973 0-8.405-3.608-8.405-8.713 0-5.148 3.476-8.714 8.405-8.714 5.105 0 8.405 3.61 8.405 8.714C8.405-3.433 5.105 0 0 0m0-24.863c-10.077 0-17.118 5.852-17.118 16.15 0 10.121 7.041 16.15 17.118 16.15 10.122 0 17.119-5.897 17.119-16.15 0-10.298-6.997-16.15-17.119-16.15" style="fill:#fff;fill-opacity:1" transform="translate(351.032 209.838)"></path><path d="M0 0c0 5.28-3.3 8.713-8.405 8.713-4.973 0-8.406-3.609-8.406-8.713 0-5.148 3.477-8.714 8.406-8.714C-3.3-8.714 0-5.104 0 0m8.714 0c0-10.298-6.997-16.15-17.119-16.15-10.077 0-17.118 5.852-17.118 16.15 0 10.121 7.041 16.15 17.118 16.15C1.717 16.15 8.714 10.253 8.714 0" style="fill:#fff;fill-opacity:1" transform="translate(404.712 201.125)"></path><path d="M0 0h7.349c2.2 0 3.256 1.187 3.256 2.904 0 1.672-1.1 2.949-3.256 2.949H0Zm0 12.277h6.952c1.805 0 2.773.924 2.773 2.288 0 1.365-.968 2.421-2.684 2.421H0Zm7.173 11.75c6.161 0 11.178-2.728 11.178-8.626 0-2.332-.705-4.752-3.389-5.984 2.86-1.54 4.268-4.4 4.268-7.173 0-6.909-6.292-8.977-11.925-9.021H-8.582v30.804Z" style="fill:#fff;fill-opacity:1" transform="translate(425.654 192.5)"></path><path d="M0 0v-7.394h6.425c2.288 0 3.301 1.717 3.301 3.565C9.726-1.893 8.625 0 6.337 0Zm19.803-23.852h-9.594l-7.173 9.99H0v-9.99h-8.714V6.953H6.337c7.877 0 11.97-5.061 11.97-10.606 0-3.784-1.321-6.996-6.513-9.285l8.009-10.385Z" style="fill:#fff;fill-opacity:1" transform="translate(457.421 209.574)"></path><path d="M0 0h-24.644v30.805H-.615v-7.306h-15.447v-4.4h14.566v-7.085h-14.566V7.349H0Z" style="fill:#fff;fill-opacity:1" transform="translate(504.899 185.723)"></path><path d="M0 0c-2.244 2.112-4.973 2.684-7.041 2.684-5.017 0-8.273-2.993-8.273-9.021 0-3.961 2.068-8.846 8.273-8.846 1.628 0 4.181.309 5.94 1.584v3.961H-8.89v6.822H6.161v-13.687c-1.936-3.916-7.306-6.028-13.246-6.028-12.189 0-16.811 8.14-16.811 16.194 0 8.053 5.281 16.326 16.855 16.326 4.269 0 8.053-.88 12.102-4.972Z" style="fill:#fff;fill-opacity:1" transform="translate(530.815 207.418)"></path><path d="M0 0h-8.493l-3.389-7.085v-.264h7.085L0-.352Zm.439-25.787c0 5.28-3.299 8.713-8.405 8.713-4.972 0-8.405-3.609-8.405-8.713 0-5.149 3.476-8.714 8.405-8.714 5.106 0 8.405 3.609 8.405 8.714m8.714 0c0-10.298-6.997-16.151-17.119-16.151-10.077 0-17.118 5.853-17.118 16.151 0 10.121 7.041 16.15 17.118 16.15 10.122 0 17.119-5.897 17.119-16.15" style="fill:#fff;fill-opacity:1" transform="translate(564.387 226.912)"></path><path d="M0 0c-.22 3.696-.22 5.104-.264 6.293v10.561h8.758V-13.95H1.101l-12.85 16.591.132-6.734v-9.857h-8.802v30.804h7.394Z" style="fill:#fff;fill-opacity:1" transform="translate(597.606 199.673)"></path><path d="M0 0s-2.057 4.823-1.659 10.237c1.081.232 2.126.536 3.11.944a18.359 18.359 0 0 1 4.198 2.461 18.341 18.341 0 0 1 1.227-4.707c.427-1.03.944-1.989 1.522-2.879C4.855 1.953 0 0 0 0m-6.076 13.17c-4.81 0-8.817 1.718-8.817 1.718s1.952 4.855 6.053 8.4a17.802 17.802 0 0 1 2.879-1.521c1.465-.606 3.052-.997 4.724-1.213a18.3 18.3 0 0 1-2.476-4.211 17.842 17.842 0 0 1-.96-3.118 19.051 19.051 0 0 0-1.403-.055m-8.821 22.775s4.011 1.722 8.824 1.722c.458 0 .925-.021 1.395-.055a17.74 17.74 0 0 1 .962-3.118c.65-1.568 1.512-2.965 2.479-4.21-1.672-.216-3.26-.608-4.725-1.215a17.805 17.805 0 0 1-2.879-1.522c-4.102 3.544-6.056 8.398-6.056 8.398M-.01 50.839s4.856-1.952 8.401-6.053a17.854 17.854 0 0 1-1.521-2.88c-.648-1.565-1.025-3.158-1.222-4.719-1.243.964-2.637 1.823-4.202 2.471-.985.408-2.029.712-3.11.943C-2.065 46.015-.01 50.839-.01 50.839m21.059.003s2.057-4.823 1.658-10.237a17.97 17.97 0 0 1-3.11-.943c-1.564-.648-2.958-1.508-4.2-2.472-.198 1.56-.577 3.154-1.225 4.718a17.837 17.837 0 0 1-1.522 2.878c3.544 4.103 8.399 6.056 8.399 6.056m6.075-13.169c4.81 0 8.818-1.718 8.818-1.718s-1.952-4.855-6.053-8.401a17.775 17.775 0 0 1-2.88 1.521c-1.464.606-3.051.998-4.722 1.213a18.287 18.287 0 0 1 2.474 4.212c.427 1.031.74 2.077.961 3.118.472.034.942.055 1.402.055m8.821-22.776s-4.011-1.721-8.824-1.721c-.458 0-.925.02-1.395.055a17.81 17.81 0 0 1-.961 3.117 18.351 18.351 0 0 1-2.474 4.211c1.67.216 3.256.608 4.72 1.214 1.029.427 1.988.944 2.878 1.523 4.103-3.544 6.056-8.399 6.056-8.399M21.058.004s-4.855 1.952-8.401 6.053c.578.89 1.095 1.849 1.521 2.879a18.337 18.337 0 0 1 1.228 4.706 18.394 18.394 0 0 1 4.196-2.458c.985-.408 2.03-.711 3.111-.942C23.114 4.828 21.058.004 21.058.004M1.892 19.013a10.709 10.709 0 0 1 2.258-2.202c-1.164-.983-2.491-1.861-4.001-2.487-.367-.152-.74-.267-1.111-.386.117.37.241.739.393 1.104.62 1.498 1.488 2.814 2.461 3.971m-2.074 4.833c-1.484.136-3.004.455-4.477 1.065-.37.152-.722.327-1.071.507.349.18.701.355 1.07.508 1.459.605 2.964.922 4.434 1.061-.141-1.044-.126-2.1.044-3.141m1.964 8.113C.853 33.084.024 34.355-.573 35.797A14.11 14.11 0 0 0-.967 36.9c.372-.118.745-.233 1.112-.385 1.436-.595 2.702-1.419 3.824-2.343a10.596 10.596 0 0 1-2.187-2.213m17.426-.066a10.765 10.765 0 0 1-2.179 2.244c1.133.939 2.415 1.779 3.871 2.382.367.152.739.267 1.111.385a14.099 14.099 0 0 0-.393-1.103c-.609-1.471-1.459-2.766-2.41-3.908m1.942-4.886c1.509-.132 3.058-.454 4.558-1.075.369-.153.722-.328 1.07-.508-.348-.18-.701-.355-1.07-.508-1.515-.628-3.08-.952-4.604-1.082.171 1.038.19 2.105.046 3.173M19.092 19.1c1.001-1.177 1.895-2.521 2.53-4.054.151-.365.275-.734.393-1.103-.372.118-.744.232-1.111.385-1.538.636-2.887 1.533-4.067 2.537.87.638 1.626 1.392 2.255 2.235M3.637 22.733a7.39 7.39 0 0 0 3.999 9.658 7.359 7.359 0 0 0 2.826.566 7.393 7.393 0 1 0-6.825-10.224m6.884 18.942c.181-.348.355-.701.508-1.07.596-1.438.908-2.918 1.048-4.366-.529.079-1.068.12-1.614.12-.504 0-1.002-.048-1.496-.117.14 1.447.452 2.926 1.047 4.363.152.369.327.722.507 1.07m-.502-31.438c-.633 1.528-.952 3.106-1.078 4.641a10.88 10.88 0 0 1 1.527-.11c.555 0 1.103.055 1.647.139-.124-1.544-.443-3.132-1.08-4.669a14.214 14.214 0 0 0-.508-1.071c-.18.349-.355.701-.508 1.07M1.447-32.185c-1.257 0-2.602.188-3.887.721-4.359 1.807-6.391 6.894-6.391 6.894s2.502 1.073 5.506 1.073c1.257 0 2.602-.188 3.888-.721 4.359-1.806 6.391-6.894 6.391-6.894s-2.503-1.073-5.507-1.073m19.039-18.131c1.286.533 2.63.721 3.887.721 3.004 0 5.507-1.073 5.507-1.073s-2.032-5.088-6.391-6.894c-1.286-.533-2.631-.721-3.888-.721-3.004 0-5.506 1.073-5.506 1.073s2.032 5.087 6.391 6.894m27.762 85.652s-2.058 4.823-1.659 10.237c1.081.232 2.125.536 3.11.944 1.56.646 2.955 1.5 4.197 2.461.2-1.557.582-3.148 1.228-4.707.427-1.03.944-1.989 1.522-2.879-3.544-4.103-8.398-6.056-8.398-6.056m-6.076 13.169c-4.81 0-8.817 1.718-8.817 1.718s1.951 4.856 6.053 8.401a17.723 17.723 0 0 1 2.879-1.521c1.464-.606 3.052-.998 4.723-1.213a18.297 18.297 0 0 1-2.475-4.211 17.757 17.757 0 0 1-.96-3.118 19.08 19.08 0 0 0-1.403-.056m-8.821 22.776s4.011 1.721 8.824 1.722c.458 0 .925-.021 1.395-.055a17.82 17.82 0 0 1 .961-3.118c.65-1.568 1.512-2.965 2.479-4.21-1.672-.216-3.26-.608-4.724-1.215a17.805 17.805 0 0 1-2.879-1.522c-4.103 3.544-6.056 8.398-6.056 8.398m14.887 14.893s4.856-1.951 8.401-6.053a17.723 17.723 0 0 1-1.521-2.879c-.648-1.565-1.025-3.159-1.222-4.719-1.243.964-2.638 1.823-4.202 2.471-.985.408-2.03.711-3.111.943-.4 5.414 1.655 10.237 1.655 10.237m21.058.004s2.058-4.823 1.659-10.237a17.97 17.97 0 0 1-3.11-.943c-1.564-.649-2.958-1.508-4.201-2.472-.197 1.56-.576 3.154-1.224 4.718a17.837 17.837 0 0 1-1.522 2.878c3.544 4.103 8.398 6.056 8.398 6.056m6.076-13.169c4.81 0 8.817-1.718 8.817-1.718s-1.951-4.856-6.053-8.401a17.723 17.723 0 0 1-2.879 1.521c-1.464.606-3.051.998-4.722 1.213a18.316 18.316 0 0 1 2.474 4.211c.427 1.032.74 2.078.96 3.119.473.034.942.055 1.403.055m8.821-22.776s-4.011-1.721-8.824-1.721c-.458 0-.925.02-1.395.055a17.73 17.73 0 0 1-.962 3.117 18.349 18.349 0 0 1-2.473 4.211c1.669.216 3.256.608 4.719 1.214 1.03.427 1.989.944 2.879 1.522 4.103-3.543 6.056-8.398 6.056-8.398M69.306 35.34s-4.856 1.952-8.401 6.053c.578.89 1.095 1.849 1.521 2.879a18.42 18.42 0 0 1 1.228 4.706 18.394 18.394 0 0 1 4.196-2.458c.985-.408 2.03-.711 3.111-.943.4-5.413-1.655-10.237-1.655-10.237M50.139 54.349a10.737 10.737 0 0 1 2.259-2.202c-1.164-.984-2.491-1.861-4.001-2.487-.368-.153-.74-.267-1.112-.386.118.37.242.739.393 1.104.62 1.497 1.489 2.813 2.461 3.971m-2.071 4.832c-1.485.136-3.005.455-4.48 1.066-.369.152-.722.327-1.07.507.348.18.701.355 1.07.508 1.461.605 2.967.923 4.439 1.062a10.727 10.727 0 0 1 .041-3.143m1.966 8.109c-.931 1.126-1.761 2.399-2.36 3.843-.151.364-.275.733-.393 1.103.372-.118.744-.233 1.111-.385 1.438-.595 2.705-1.42 3.828-2.345a10.697 10.697 0 0 1-2.186-2.216m17.422-.061a10.76 10.76 0 0 1-2.179 2.243c1.133.94 2.415 1.779 3.87 2.383.367.152.74.267 1.112.385a14.099 14.099 0 0 0-.393-1.103c-.609-1.472-1.459-2.766-2.41-3.908m1.946-4.886c1.507-.133 3.055-.455 4.554-1.075.369-.153.722-.328 1.07-.508-.348-.18-.701-.355-1.07-.508-1.513-.627-3.076-.951-4.597-1.082.173 1.052.187 2.118.043 3.173m-2.059-7.911c1-1.176 1.892-2.519 2.527-4.05.151-.365.275-.734.393-1.104-.372.119-.744.233-1.111.385-1.537.637-2.886 1.533-4.065 2.536a10.638 10.638 0 0 1 2.256 2.233m-15.458 3.637a7.391 7.391 0 1 0 13.656 5.66 7.391 7.391 0 0 0-13.656-5.66m6.884 18.942c.18-.348.355-.701.508-1.07.596-1.438.908-2.918 1.048-4.366-.529.079-1.068.119-1.615.119-.503 0-1.001-.047-1.495-.116.14 1.447.452 2.926 1.046 4.363.153.369.328.722.508 1.07m-.502-31.438c-.633 1.528-.952 3.106-1.078 4.641a10.87 10.87 0 0 1 1.527-.11c.555 0 1.103.055 1.646.139-.124-1.544-.443-3.132-1.079-4.67a14.009 14.009 0 0 0-.508-1.07c-.18.348-.355.701-.508 1.07M49.695-7.45c-1.257 0-2.602.188-3.888.721C41.448-4.922 39.416.165 39.416.165s2.503 1.073 5.507 1.073c1.257 0 2.602-.188 3.887-.721 4.359-1.806 6.391-6.894 6.391-6.894S52.699-7.45 49.695-7.45m19.039-28.732c1.285.533 2.63.721 3.887.721 3.004 0 5.507-1.073 5.507-1.073s-2.032-5.087-6.391-6.894c-1.286-.533-2.631-.721-3.888-.721-3.004 0-5.506 1.073-5.506 1.073s2.032 5.088 6.391 6.894M96.495 0s-2.057 4.823-1.658 10.237c1.081.232 2.125.536 3.11.944a18.373 18.373 0 0 1 4.197 2.461 18.304 18.304 0 0 1 1.228-4.707c.427-1.03.944-1.989 1.522-2.879C101.35 1.954 96.495 0 96.495 0m-6.076 13.17c-4.81 0-8.817 1.718-8.817 1.718s1.952 4.855 6.053 8.4a17.854 17.854 0 0 1 2.88-1.521c1.464-.606 3.052-.997 4.723-1.213-.966-1.245-1.827-2.644-2.475-4.211a17.762 17.762 0 0 1-.961-3.118 19.03 19.03 0 0 0-1.403-.055m-8.821 22.775s4.012 1.722 8.824 1.722c.459 0 .926-.021 1.396-.055a17.82 17.82 0 0 1 .961-3.118c.65-1.568 1.512-2.965 2.479-4.21-1.672-.216-3.26-.608-4.725-1.215a17.837 17.837 0 0 1-2.878-1.522c-4.103 3.544-6.057 8.398-6.057 8.398m14.888 14.894s4.855-1.952 8.401-6.053a17.775 17.775 0 0 1-1.521-2.88c-.648-1.564-1.026-3.158-1.222-4.719-1.243.964-2.638 1.823-4.203 2.471-.984.408-2.029.712-3.11.943-.401 5.414 1.655 10.238 1.655 10.238m21.058.003s2.057-4.823 1.659-10.237a17.944 17.944 0 0 1-3.11-.943c-1.564-.648-2.958-1.508-4.201-2.472-.197 1.56-.576 3.154-1.225 4.718a17.68 17.68 0 0 1-1.522 2.878c3.544 4.103 8.399 6.056 8.399 6.056m6.076-13.169c4.81 0 8.817-1.718 8.817-1.718s-1.952-4.855-6.053-8.401a17.806 17.806 0 0 1-2.879 1.521c-1.465.606-3.052.998-4.722 1.213a18.373 18.373 0 0 1 2.474 4.211c.427 1.032.739 2.078.96 3.119.473.034.942.055 1.403.055m8.821-22.776s-4.011-1.721-8.824-1.721c-.458 0-.925.02-1.395.055a17.73 17.73 0 0 1-.962 3.117 18.316 18.316 0 0 1-2.474 4.211c1.67.216 3.257.608 4.72 1.214 1.03.427 1.988.944 2.879 1.523 4.102-3.544 6.056-8.399 6.056-8.399M117.553.004s-4.855 1.952-8.4 6.053c.578.89 1.094 1.849 1.521 2.879a18.372 18.372 0 0 1 1.227 4.707 18.367 18.367 0 0 1 4.197-2.459 17.882 17.882 0 0 1 3.11-.942c.401-5.414-1.655-10.238-1.655-10.238M98.387 19.013a10.713 10.713 0 0 1 2.259-2.202c-1.165-.983-2.491-1.861-4.002-2.487-.367-.152-.739-.267-1.111-.386.118.37.242.739.393 1.104.62 1.498 1.488 2.814 2.461 3.971m-2.074 4.832c-1.484.137-3.003.456-4.477 1.066-.369.152-.722.327-1.07.507.348.181.701.355 1.07.508 1.459.605 2.963.922 4.433 1.061-.141-1.044-.126-2.1.044-3.142m1.964 8.114c-.929 1.125-1.757 2.396-2.355 3.838-.151.365-.275.734-.393 1.103.372-.118.744-.233 1.111-.385 1.436-.595 2.702-1.419 3.824-2.343a10.62 10.62 0 0 1-2.187-2.213m17.426-.066a10.74 10.74 0 0 1-2.179 2.244c1.134.939 2.415 1.779 3.871 2.382.367.152.74.267 1.111.385a13.701 13.701 0 0 0-.393-1.103c-.609-1.471-1.458-2.766-2.41-3.908m1.947-4.886c1.507-.132 3.055-.455 4.553-1.075.369-.153.722-.328 1.071-.508a14.19 14.19 0 0 0-1.07-.508c-1.513-.627-3.076-.951-4.597-1.081a10.64 10.64 0 0 1 .043 3.172m-2.059-7.911c.999-1.176 1.892-2.519 2.526-4.05.151-.365.276-.734.394-1.103-.372.118-.745.232-1.112.385-1.537.636-2.885 1.532-4.064 2.535a10.638 10.638 0 0 1 2.256 2.233m-15.458 3.637a7.39 7.39 0 0 0 3.998 9.658 7.36 7.36 0 0 0 2.827.566 7.394 7.394 0 0 0 .006-14.787 7.394 7.394 0 0 0-6.831 4.563m6.884 18.942c.18-.348.355-.701.508-1.07.596-1.438.908-2.918 1.048-4.366-.529.079-1.068.12-1.615.12-.504 0-1.001-.048-1.495-.117.139 1.447.451 2.926 1.046 4.363.153.369.327.722.508 1.07m-.502-31.438c-.634 1.528-.952 3.106-1.078 4.641.5-.071 1.01-.11 1.527-.11.555 0 1.103.055 1.646.139-.124-1.544-.443-3.132-1.08-4.669a13.827 13.827 0 0 0-.507-1.071 13.64 13.64 0 0 0-.508 1.07m-8.572-42.422c-1.257 0-2.602.188-3.888.721-4.359 1.807-6.391 6.894-6.391 6.894s2.503 1.073 5.507 1.073c1.256 0 2.601-.188 3.887-.721 4.359-1.806 6.391-6.894 6.391-6.894s-2.502-1.073-5.506-1.073m19.038-18.131c1.286.533 2.631.721 3.888.721 3.004 0 5.506-1.073 5.506-1.073s-2.032-5.088-6.391-6.894c-1.285-.533-2.63-.721-3.887-.721-3.004 0-5.507 1.073-5.507 1.073s2.032 5.087 6.391 6.894m-8.26-39.502v29.708l.529-.227c.322-.138 3.248-1.348 6.847-1.348 1.875 0 3.621.33 5.19.98 5.524 2.289 7.985 8.118 8.248 8.775l1.23 3.081-3.049 1.307c-.322.138-3.249 1.349-6.847 1.349-1.875 0-3.621-.33-5.19-.98-3.435-1.424-5.684-4.214-6.958-6.28V1.665c3.58-3.189 7.326-4.723 7.571-4.82l3.081-1.231 1.307 3.049c.121.282 2.206 5.272 1.957 11.154.327-.014.647-.043.98-.043 5.449 0 9.975 1.915 10.165 1.997l3.05 1.308-1.232 3.081c-.114.284-2.166 5.283-6.498 9.265 4.331 3.985 6.381 8.984 6.494 9.268l1.231 3.081-3.05 1.308c-.189.081-4.711 1.993-10.157 1.993-.336 0-.659-.029-.989-.044.247 5.883-1.84 10.872-1.961 11.153l-1.308 3.049-3.081-1.232c-.284-.113-5.283-2.165-9.265-6.497-3.985 4.33-8.984 6.38-9.268 6.494l-3.082 1.231-1.307-3.05c-.121-.282-2.206-5.271-1.957-11.153-.326.014-.646.043-.978.043h-.001c-5.45-.001-9.976-1.916-10.166-1.997l-3.049-1.308 1.232-3.082c.113-.284 2.165-5.282 6.497-9.265-4.33-3.984-6.38-8.983-6.494-9.268l-1.231-3.081 3.05-1.307c.19-.082 4.712-1.994 10.157-1.994.336 0 .659.03.989.044-.247-5.882 1.84-10.871 1.961-11.153l1.309-3.049 3.081 1.232c.244.098 3.983 1.63 7.56 4.815v-29.011c-1.275 2.066-3.524 4.857-6.958 6.28-1.569.65-3.316.98-5.19.98-3.599 0-6.526-1.21-6.848-1.348l-3.049-1.307 1.231-3.082c.262-.657 2.723-6.485 8.248-8.775 1.569-.65 3.315-.98 5.19-.98 3.598 0 6.525 1.21 6.847 1.348l.529.227v-55.806H60.473v43.842l.529-.227c.322-.138 3.248-1.348 6.847-1.348 1.875 0 3.621.33 5.19.98 5.524 2.29 7.986 8.118 8.248 8.775l1.231 3.081-3.05 1.308c-.322.138-3.248 1.348-6.847 1.348-1.875 0-3.621-.33-5.19-.98-3.435-1.423-5.684-4.214-6.958-6.28v76.32c3.58-3.189 7.326-4.723 7.571-4.82l3.081-1.231 1.307 3.049c.121.282 2.207 5.271 1.958 11.154.326-.014.646-.043.979-.043 5.449 0 9.976 1.915 10.166 1.997l3.049 1.308-1.232 3.081c-.114.284-2.166 5.283-6.497 9.265 4.33 3.984 6.38 8.984 6.494 9.268l1.23 3.081-3.049 1.308c-.19.081-4.712 1.993-10.158 1.993-.336 0-.659-.03-.988-.044.247 5.883-1.841 10.872-1.962 11.153l-1.308 3.049-3.081-1.232c-.284-.113-5.283-2.165-9.265-6.497-3.984 4.33-8.984 6.38-9.268 6.494l-3.081 1.231-1.308-3.05c-.12-.282-2.206-5.271-1.957-11.154-.326.014-.646.044-.978.044-5.45-.001-9.977-1.916-10.167-1.997l-3.049-1.309 1.232-3.081c.114-.284 2.165-5.282 6.497-9.265-4.33-3.984-6.38-8.983-6.494-9.268l-1.23-3.081 3.049-1.307c.19-.082 4.712-1.994 10.158-1.994.336 0 .659.03.988.044-.247-5.883 1.841-10.871 1.961-11.153l1.309-3.049 3.081 1.232c.244.098 3.983 1.63 7.56 4.815V-2.619c-1.275 2.066-3.524 4.856-6.958 6.279-1.569.651-3.315.98-5.19.98-3.599 0-6.525-1.21-6.847-1.348l-3.05-1.307 1.231-3.082c.262-.657 2.724-6.485 8.248-8.775 1.569-.65 3.315-.98 5.19-.98 3.598 0 6.525 1.211 6.847 1.349l.529.226v-80.541H12.225v29.708l.529-.227c.322-.138 3.249-1.348 6.847-1.348 1.875 0 3.621.33 5.19.98 5.525 2.289 7.986 8.118 8.248 8.775l1.231 3.081-3.05 1.307c-.321.138-3.248 1.349-6.847 1.349-1.874 0-3.621-.33-5.19-.98-3.435-1.424-5.684-4.215-6.958-6.281V1.665c3.58-3.189 7.326-4.723 7.571-4.82l3.081-1.231 1.308 3.049c.121.282 2.206 5.272 1.957 11.154.327-.014.647-.043.979-.043 5.45 0 9.976 1.915 10.166 1.997l3.049 1.308-1.232 3.081c-.113.284-2.165 5.283-6.497 9.265 4.33 3.985 6.38 8.984 6.494 9.268l1.231 3.081-3.05 1.308c-.19.081-4.712 1.993-10.157 1.993-.336 0-.659-.029-.989-.044.247 5.883-1.84 10.872-1.961 11.153l-1.309 3.049-3.081-1.232c-.284-.113-5.282-2.165-9.265-6.497-3.984 4.33-8.983 6.38-9.268 6.494l-3.081 1.231-1.307-3.05c-.121-.282-2.206-5.271-1.957-11.153-.327.014-.647.043-.979.043-5.45-.001-9.976-1.916-10.166-1.997l-3.05-1.308 1.232-3.082c.114-.284 2.166-5.282 6.498-9.265-4.331-3.984-6.381-8.983-6.494-9.268l-1.231-3.081 3.049-1.307c.19-.082 4.712-1.994 10.158-1.994.336 0 .659.03.988.044C-5.334 3.929-3.247-1.06-3.126-1.342l1.308-3.049 3.081 1.232c.245.098 3.984 1.63 7.56 4.815v-29.01c-1.274 2.065-3.523 4.856-6.958 6.279-1.569.65-3.315.98-5.19.98-3.599 0-6.525-1.21-6.847-1.348l-3.049-1.307 1.23-3.082c.263-.657 2.724-6.485 8.248-8.775 1.569-.65 3.315-.98 5.19-.98 3.599 0 6.525 1.21 6.847 1.348l.529.227v-55.806h-263.285v-3.402h411.066v3.402Z" style="fill:#fff;fill-opacity:1" transform="translate(442.98 377.57)"></path><path d="M0 0c1.561 0 2.91-.102 4.047-.308 1.136-.205 2.074-.568 2.814-1.089.739-.52 1.287-1.218 1.643-2.094.356-.878.534-1.986.534-3.328 0-1.096-.11-2.033-.328-2.815a6.54 6.54 0 0 0-1.11-2.197c-.52-.685-1.191-1.362-2.013-2.034a54.883 54.883 0 0 0-3.04-2.279c-1.123-.822-2.04-1.541-2.752-2.157-.712-.617-1.267-1.206-1.664-1.766-.397-.562-.671-1.104-.821-1.623a6.026 6.026 0 0 1-.226-1.685c0-.191.02-.315.061-.37.041-.054.144-.082.309-.082H8.545c.274 0 .411-.137.411-.411v-3.697c0-.273-.137-.41-.411-.41H-8.133a1.05 1.05 0 0 0-.432.082c-.124.055-.185.164-.185.328v3.082c0 1.232.116 2.3.35 3.204a8.426 8.426 0 0 0 1.19 2.609c.562.835 1.308 1.676 2.24 2.526.931.848 2.108 1.834 3.532 2.957a50.592 50.592 0 0 1 2.404 1.829c.615.507 1.095.979 1.438 1.417.342.438.574.87.698 1.294.123.424.184.91.184 1.458 0 .658-.102 1.178-.308 1.561a2.112 2.112 0 0 1-.882.884c-.385.205-.85.335-1.397.39a19.47 19.47 0 0 1-1.89.082c-.411 0-.87-.02-1.377-.061a69.059 69.059 0 0 1-1.54-.144 15.975 15.975 0 0 1-1.479-.226 61.053 61.053 0 0 1-1.232-.267c-.247-.027-.384.109-.411.411l-.41 3.697c0 .191.108.328.328.411.411.108.925.218 1.54.328.617.11 1.26.198 1.931.267s1.342.124 2.014.165C-1.157-.02-.548 0 0 0" style="fill:#fff;fill-opacity:1" transform="translate(412.241 172.617)"></path><path d="M0 0c0-.876.026-1.787.081-2.732.055-.945.145-1.849.267-2.711C.472-6.306.622-7.08.8-7.764c.179-.685.391-1.192.637-1.52.302-.411.65-.664 1.048-.76.396-.096.897-.144 1.499-.144.63 0 1.13.055 1.499.165.371.109.706.355 1.008.739.246.328.458.835.636 1.52.178.684.329 1.458.452 2.321.124.862.219 1.766.287 2.711.069.945.103 1.856.103 2.732 0 .849-.034 1.76-.103 2.732a38.1 38.1 0 0 1-.287 2.753 21.115 21.115 0 0 1-.452 2.32c-.178.684-.39 1.192-.636 1.52-.302.411-.637.671-1.008.78-.369.11-.869.165-1.499.165-.602 0-1.103-.055-1.499-.165-.398-.109-.746-.369-1.048-.78C1.191 9.023.979 8.53.8 7.846a21.14 21.14 0 0 1-.452-2.341 34.125 34.125 0 0 1-.267-2.773A48.464 48.464 0 0 1 0 0m13.433 0c0-1.068-.062-2.239-.185-3.512a26.738 26.738 0 0 0-.616-3.698 19.08 19.08 0 0 0-1.089-3.265c-.438-.986-.986-1.726-1.643-2.219a7.419 7.419 0 0 0-1.212-.801 7.62 7.62 0 0 0-1.274-.514 7.961 7.961 0 0 0-1.499-.287 19.654 19.654 0 0 0-1.931-.082c-.739 0-1.383.027-1.931.082a8.422 8.422 0 0 0-1.52.287 7.368 7.368 0 0 0-1.293.514 7.377 7.377 0 0 0-1.212.801c-.658.493-1.206 1.233-1.644 2.219A17.859 17.859 0 0 0-4.683-7.21a28.845 28.845 0 0 0-.597 3.698A37.051 37.051 0 0 0-5.464 0c0 1.068.062 2.239.184 3.512.124 1.274.322 2.507.597 3.698.273 1.192.629 2.28 1.067 3.266.438.986.986 1.725 1.644 2.218.411.328.814.596 1.212.801.396.205.828.376 1.293.514.466.137.972.232 1.52.287.548.055 1.192.082 1.931.082.739 0 1.383-.027 1.931-.082a7.882 7.882 0 0 0 1.499-.287 7.62 7.62 0 0 0 1.274-.514 7.419 7.419 0 0 0 1.212-.801c.657-.493 1.205-1.232 1.643-2.218.437-.986.802-2.074 1.089-3.266.287-1.191.493-2.424.616-3.698.123-1.273.185-2.444.185-3.512" style="fill:#fff;fill-opacity:1" transform="translate(430.687 158.239)"></path><path d="M0 0c1.561 0 2.91-.102 4.047-.308 1.136-.205 2.074-.568 2.814-1.089.739-.52 1.287-1.218 1.643-2.094.356-.878.534-1.986.534-3.328 0-1.096-.11-2.033-.328-2.815a6.54 6.54 0 0 0-1.11-2.197c-.52-.685-1.191-1.362-2.013-2.034a54.883 54.883 0 0 0-3.04-2.279c-1.123-.822-2.04-1.541-2.752-2.157-.712-.617-1.267-1.206-1.664-1.766-.397-.562-.671-1.104-.821-1.623a6.026 6.026 0 0 1-.226-1.685c0-.191.02-.315.061-.37.041-.054.144-.082.309-.082H8.545c.274 0 .411-.137.411-.411v-3.697c0-.273-.137-.41-.411-.41H-8.133a1.05 1.05 0 0 0-.432.082c-.124.055-.185.164-.185.328v3.082c0 1.232.116 2.3.35 3.204a8.426 8.426 0 0 0 1.19 2.609c.562.835 1.308 1.676 2.24 2.526.931.848 2.108 1.834 3.532 2.957a50.592 50.592 0 0 1 2.404 1.829c.615.507 1.095.979 1.438 1.417.342.438.574.87.698 1.294.123.424.184.91.184 1.458 0 .658-.102 1.178-.308 1.561a2.112 2.112 0 0 1-.882.884c-.385.205-.85.335-1.397.39a19.47 19.47 0 0 1-1.89.082c-.411 0-.87-.02-1.377-.061a69.059 69.059 0 0 1-1.54-.144 15.975 15.975 0 0 1-1.479-.226 61.053 61.053 0 0 1-1.232-.267c-.247-.027-.384.109-.411.411l-.41 3.697c0 .191.108.328.328.411.411.108.925.218 1.54.328.617.11 1.26.198 1.931.267s1.342.124 2.014.165C-1.157-.02-.548 0 0 0" style="fill:#fff;fill-opacity:1" transform="translate(456.772 172.617)"></path><path d="M0 0c.247.082.52.124.821.124h4.438c.273 0 .41-.138.41-.411v-22.717c0-.165.083-.247.246-.247h4.684c.273 0 .411-.138.411-.411v-3.739c0-.273-.138-.41-.411-.41H-5.176c-.274 0-.411.137-.411.41v3.739c0 .273.137.411.411.411h5.3c.163 0 .246.082.246.247v18.321c-.055.137-.138.206-.246.206l-5.711-1.232c-.274 0-.411.136-.411.41v3.697c0 .219.137.37.411.452Z" style="fill:#fff;fill-opacity:1" transform="translate(476.82 172.083)"></path><path d="M0 0c-.274 0-.411.137-.411.411v3.492c0 .273.137.411.411.411h10.105c.274 0 .411-.138.411-.411V.411c0-.274-.137-.411-.411-.411Z" style="fill:#fff;fill-opacity:1" transform="translate(499.455 154.46)"></path><path d="M0 0c1.561 0 2.91-.102 4.047-.308 1.136-.205 2.074-.568 2.814-1.089.739-.52 1.287-1.218 1.643-2.094.356-.878.534-1.986.534-3.328 0-1.096-.11-2.033-.328-2.815a6.54 6.54 0 0 0-1.11-2.197c-.52-.685-1.191-1.362-2.013-2.034a54.883 54.883 0 0 0-3.04-2.279c-1.123-.822-2.04-1.541-2.752-2.157-.712-.617-1.267-1.206-1.664-1.766-.397-.562-.671-1.104-.821-1.623a6.026 6.026 0 0 1-.226-1.685c0-.191.02-.315.061-.37.041-.054.144-.082.309-.082H8.545c.274 0 .411-.137.411-.411v-3.697c0-.273-.137-.41-.411-.41H-8.133a1.05 1.05 0 0 0-.432.082c-.124.055-.185.164-.185.328v3.082c0 1.232.116 2.3.349 3.204.233.904.63 1.773 1.191 2.609.562.835 1.308 1.676 2.24 2.526.931.848 2.108 1.834 3.532 2.957a50.592 50.592 0 0 1 2.404 1.829c.615.507 1.095.979 1.438 1.417.342.438.574.87.698 1.294.123.424.184.91.184 1.458 0 .658-.102 1.178-.308 1.561a2.112 2.112 0 0 1-.882.884c-.385.205-.85.335-1.397.39a19.47 19.47 0 0 1-1.89.082c-.411 0-.87-.02-1.377-.061a69.059 69.059 0 0 1-1.54-.144 15.975 15.975 0 0 1-1.479-.226 61.053 61.053 0 0 1-1.232-.267c-.247-.027-.384.109-.411.411l-.41 3.697c0 .191.108.328.328.411.411.108.925.218 1.54.328.617.11 1.26.198 1.931.267s1.342.124 2.013.165C-1.157-.02-.548 0 0 0" style="fill:#fff;fill-opacity:1" transform="translate(529.69 172.617)"></path><path d="M0 0c0-.876.026-1.787.081-2.732.055-.945.145-1.849.267-2.711C.472-6.306.622-7.08.8-7.764c.179-.685.391-1.192.637-1.52.302-.411.65-.664 1.048-.76.396-.096.896-.144 1.499-.144.63 0 1.13.055 1.499.165.371.109.706.355 1.008.739.246.328.458.835.636 1.52.178.684.329 1.458.452 2.321.124.862.219 1.766.287 2.711.069.945.103 1.856.103 2.732 0 .849-.034 1.76-.103 2.732a38.1 38.1 0 0 1-.287 2.753 21.115 21.115 0 0 1-.452 2.32c-.178.684-.39 1.192-.636 1.52-.302.411-.637.671-1.008.78-.369.11-.869.165-1.499.165-.603 0-1.103-.055-1.499-.165-.398-.109-.746-.369-1.048-.78C1.191 9.023.979 8.53.8 7.846a21.14 21.14 0 0 1-.452-2.341 34.125 34.125 0 0 1-.267-2.773A48.464 48.464 0 0 1 0 0m13.433 0c0-1.068-.062-2.239-.185-3.512a26.738 26.738 0 0 0-.616-3.698 19.08 19.08 0 0 0-1.089-3.265c-.438-.986-.986-1.726-1.643-2.219a7.419 7.419 0 0 0-1.212-.801 7.62 7.62 0 0 0-1.274-.514 7.961 7.961 0 0 0-1.499-.287 19.654 19.654 0 0 0-1.931-.082c-.739 0-1.383.027-1.931.082a8.422 8.422 0 0 0-1.52.287 7.368 7.368 0 0 0-1.293.514 7.377 7.377 0 0 0-1.212.801c-.658.493-1.206 1.233-1.644 2.219A17.859 17.859 0 0 0-4.683-7.21a28.845 28.845 0 0 0-.597 3.698A37.051 37.051 0 0 0-5.464 0c0 1.068.062 2.239.184 3.512.124 1.274.322 2.507.597 3.698.273 1.192.629 2.28 1.067 3.266.438.986.986 1.725 1.644 2.218.411.328.814.596 1.212.801.396.205.828.376 1.293.514.466.137.972.232 1.52.287.548.055 1.192.082 1.931.082.739 0 1.383-.027 1.931-.082a7.882 7.882 0 0 0 1.499-.287 7.62 7.62 0 0 0 1.274-.514 7.419 7.419 0 0 0 1.212-.801c.657-.493 1.205-1.232 1.643-2.218.437-.986.802-2.074 1.089-3.266.287-1.191.493-2.424.616-3.698.123-1.273.185-2.444.185-3.512" style="fill:#fff;fill-opacity:1" transform="translate(548.136 158.239)"></path><path d="M0 0c1.561 0 2.91-.102 4.047-.308 1.136-.205 2.074-.568 2.814-1.089.739-.52 1.287-1.218 1.643-2.094.356-.878.534-1.986.534-3.328 0-1.096-.11-2.033-.328-2.815a6.54 6.54 0 0 0-1.11-2.197c-.52-.685-1.191-1.362-2.013-2.034a54.883 54.883 0 0 0-3.04-2.279c-1.123-.822-2.04-1.541-2.752-2.157-.712-.617-1.267-1.206-1.664-1.766-.397-.562-.671-1.104-.821-1.623a6.026 6.026 0 0 1-.226-1.685c0-.191.02-.315.061-.37.042-.054.144-.082.309-.082H8.545c.274 0 .411-.137.411-.411v-3.697c0-.273-.137-.41-.411-.41H-8.133a1.05 1.05 0 0 0-.432.082c-.124.055-.185.164-.185.328v3.082c0 1.232.116 2.3.35 3.204a8.426 8.426 0 0 0 1.19 2.609c.562.835 1.308 1.676 2.24 2.526.931.848 2.108 1.834 3.532 2.957a50.592 50.592 0 0 1 2.404 1.829c.616.507 1.095.979 1.438 1.417.342.438.574.87.698 1.294.123.424.184.91.184 1.458 0 .658-.102 1.178-.308 1.561a2.112 2.112 0 0 1-.882.884c-.385.205-.85.335-1.397.39a19.47 19.47 0 0 1-1.89.082c-.411 0-.87-.02-1.377-.061a69.059 69.059 0 0 1-1.54-.144 15.975 15.975 0 0 1-1.479-.226 62.592 62.592 0 0 1-1.232-.267c-.247-.027-.384.109-.411.411l-.41 3.697c0 .191.108.328.328.411.411.108.925.218 1.54.328.617.11 1.26.198 1.931.267s1.342.124 2.014.165C-1.157-.02-.548 0 0 0" style="fill:#fff;fill-opacity:1" transform="translate(574.221 172.617)"></path><path d="M0 0c0 .22.013.446.04.678.028.233.11.561.247.986.136.424.356 1 .658 1.726a88.1 88.1 0 0 0 1.293 2.916A649.294 649.294 0 0 0 7.517 17.46c.11.273.288.41.534.41h4.314a.685.685 0 0 0 .369-.102c.11-.069.137-.185.083-.349a656.29 656.29 0 0 1-3.636-7.149c-1-1.998-1.822-3.676-2.464-5.031C6.073 3.883 5.6 2.835 5.299 2.096 4.997 1.357 4.847.864 4.847.617c0-.22.096-.329.288-.329h6.408c.164 0 .246.083.246.246v8.135c0 .273.138.41.411.41h4.314c.273 0 .41-.137.41-.41V.534c0-.163.083-.246.248-.246h2.752c.273 0 .41-.137.41-.41v-3.534c0-.273-.137-.411-.41-.411h-2.752c-.165 0-.248-.082-.248-.246v-5.341c0-.273-.137-.41-.41-.41H12.2c-.273 0-.411.137-.411.41v5.341c0 .164-.082.246-.246.246H.411c-.275 0-.411.138-.411.411Z" style="fill:#fff;fill-opacity:1" transform="translate(585.766 154.336)"></path></g></svg>