<svg version="1.1" id="Layer_1" xmlns="http://www.w3.org/2000/svg" xmlns:xlink="http://www.w3.org/1999/xlink" x="0px" y="0px"
	 width="100%" viewBox="0 0 976 976" enable-background="new 0 0 976 976" xml:space="preserve">
<path fill="#000000" opacity="1.000000" stroke="none" 
	d="
M1.000001,518.000000 
	C1.000000,500.979095 1.000000,483.958221 1.000500,466.055847 
	C1.202655,464.202850 1.550558,463.236450 1.584488,462.259155 
	C2.347417,440.282776 5.310730,418.577881 9.547843,397.026428 
	C27.294310,306.761505 67.350609,227.689774 129.360550,159.866089 
	C182.791214,101.426041 246.755661,58.341084 321.037323,30.765375 
	C358.294708,16.934248 396.682709,7.731893 436.243439,3.599829 
	C445.155579,2.668970 454.080811,1.863301 463.000000,1.000001 
	C481.020905,1.000000 499.041779,1.000000 517.921204,1.116194 
	C525.909058,1.746040 533.060181,2.054523 540.164001,2.808506 
	C572.644104,6.255870 604.587891,12.436068 635.771423,22.246738 
	C725.385681,50.440353 801.047058,100.003151 862.510681,171.034195 
	C910.555847,226.557983 944.219543,289.872314 963.955688,360.595825 
	C969.680603,381.110962 973.691406,401.981354 977.000000,423.000000 
	C977.000000,468.020905 977.000000,513.041809 976.974121,558.922974 
	C976.763245,560.419434 976.494507,561.044006 976.405151,561.693298 
	C971.716431,595.759399 963.207031,628.880127 951.177795,661.056091 
	C921.163208,741.339233 873.461060,809.308777 808.212830,864.877380 
	C749.401489,914.963867 682.402283,949.126953 607.394287,967.670288 
	C592.052185,971.463135 576.452148,973.831604 561.000000,977.000000 
	C514.645752,977.000000 468.291534,977.000000 421.133362,976.821899 
	C406.790344,974.054871 393.141724,971.934570 379.730713,968.798401 
	C310.790894,952.676636 248.113525,923.140930 192.192474,879.679749 
	C109.920448,815.738953 53.065403,734.003296 21.968904,634.502380 
	C12.821792,605.233948 6.454146,575.345398 3.561358,544.768677 
	C2.717100,535.844910 1.854301,526.922852 1.000001,518.000000 
M439.633942,45.346310 
	C433.863129,46.083435 428.065430,46.654446 422.325836,47.584270 
	C380.695831,54.328411 340.572205,66.078682 302.390503,84.123840 
	C214.718704,125.558624 146.699844,188.361160 99.281898,272.916992 
	C57.035526,348.250854 38.512604,429.300934 43.163429,515.667847 
	C44.716278,544.504578 48.906166,572.871643 56.022495,600.803284 
	C73.996727,671.352417 106.841896,734.219666 155.592407,788.271423 
	C241.181442,883.167786 348.269226,933.422302 475.862061,939.442017 
	C508.680359,940.990295 541.318787,937.951904 573.689941,931.860962 
	C648.427185,917.798401 715.576355,887.048157 773.936157,838.539246 
	C877.671875,752.313721 932.695557,641.188477 939.469849,506.455750 
	C941.002563,475.971802 938.625732,445.542389 933.341248,415.460297 
	C918.479614,330.859802 882.904724,256.055817 825.270081,192.296082 
	C744.671509,103.131821 643.954163,53.889019 524.312988,43.528099 
	C496.391479,41.110092 468.404999,41.960426 439.633942,45.346310 
z"/>
<path fill="#000000" opacity="1.000000" stroke="none" 
	d="
M522.609619,187.060715 
	C586.640503,200.940964 632.161438,237.459717 652.940918,299.143738 
	C680.166748,379.963959 654.652466,446.205353 589.526489,499.098572 
	C590.828308,501.147980 593.478333,501.475800 595.658081,502.490021 
	C677.337830,540.495544 728.089233,603.389343 747.055603,691.492249 
	C751.185242,710.675232 753.126587,730.265015 751.398621,750.006409 
	C750.288696,762.687134 743.795898,769.743469 732.818115,770.138184 
	C721.686035,770.538452 713.757507,763.109680 711.575745,751.062317 
	C710.139160,743.129944 710.564758,735.135132 709.896973,727.184509 
	C707.372864,697.130981 698.609436,669.060425 683.729797,643.003113 
	C652.435791,588.200806 607.344177,549.796570 546.800659,530.792908 
	C499.603119,515.978394 453.207275,520.087585 408.659424,540.839478 
	C349.348267,568.468567 307.525818,613.005920 283.964844,674.260559 
	C275.517181,696.223206 271.786163,719.139587 271.387634,742.622620 
	C271.325500,746.284180 271.345795,749.906799 270.386963,753.518066 
	C267.408875,764.734192 259.107788,771.194275 248.672195,770.202820 
	C238.193771,769.207275 231.615540,762.075562 230.677261,750.322021 
	C228.914566,728.240845 231.164246,706.395264 236.312759,684.987427 
	C256.830139,599.674438 307.305664,538.877625 386.989624,502.241821 
	C388.887543,501.369232 391.181519,501.084381 392.551544,499.117584 
	C391.796204,497.021729 389.882111,496.180206 388.336090,495.001587 
	C351.595490,466.990509 328.502533,430.371124 320.980225,384.783875 
	C305.979340,293.874512 363.818237,207.982529 454.755188,187.955673 
	C477.097046,183.035385 499.652527,183.054871 522.609619,187.060715 
M422.236206,466.228271 
	C451.587219,484.575073 483.514191,490.356110 517.132263,483.360840 
	C599.670776,466.186188 644.312073,376.892212 607.885986,300.455627 
	C583.771912,249.854645 528.179138,217.716721 466.484222,229.369751 
	C397.842743,242.334869 352.827850,306.879547 362.716827,374.778717 
	C368.393616,413.756104 388.522430,444.195312 422.236206,466.228271 
z"/>
</svg>